<svg xmlns="http://www.w3.org/2000/svg" width="1200" height="1200" viewBox="0 0 1200 1200" version="1.1">
	<path d="M 555.500 225.492 C 523.961 229.426, 491.802 237.668, 465.239 248.623 C 451.941 254.107, 420.782 270.130, 409 277.542 C 386.052 291.978, 371.396 303.610, 351.160 323.444 C 328.738 345.422, 312.680 365.166, 298.530 388.154 L 292.691 397.641 284.096 399.282 C 239.607 407.776, 190.722 431.366, 155 461.580 C 144.154 470.753, 123.181 492.208, 115.206 502.288 C 84.064 541.647, 62.936 590.600, 55.230 641.251 C 52.699 657.883, 52.751 713.749, 55.312 730 C 63.374 781.155, 83.122 826.786, 115.035 868 C 123.575 879.029, 146.996 902.802, 158.321 911.936 C 178.847 928.492, 210.599 946.890, 236.864 957.445 C 256.887 965.492, 285.338 972.570, 307.211 974.945 C 313.806 975.662, 414.390 975.994, 620.711 975.980 C 947.036 975.960, 931.414 976.193, 955.500 970.974 C 990.690 963.348, 1031.198 943.280, 1060.044 919.184 C 1107.194 879.796, 1139.870 818.545, 1145.957 758.144 C 1147.300 744.812, 1147.299 711.180, 1145.956 697.856 C 1143.190 670.431, 1135.318 643.958, 1121.942 617.094 C 1107.691 588.476, 1095.411 571.497, 1073.358 549.919 C 1060.243 537.087, 1047.895 527.299, 1033.358 518.211 C 1022.957 511.710, 1000.250 500.357, 988 495.536 C 978.768 491.902, 949.965 484, 945.951 484 C 943.629 484, 943.650 484.045, 937.540 465.177 C 927.673 434.710, 913.043 405.316, 892.904 375.500 C 879.711 355.967, 872.438 347.312, 852.065 326.900 C 831.402 306.198, 819.499 296.327, 798.623 282.578 C 752.835 252.423, 708.624 235.374, 653 226.422 C 638.577 224.101, 571.760 223.464, 555.500 225.492 M 582 258.590 C 552.625 261.148, 539.618 263.206, 519.500 268.478 C 463.293 283.208, 415.781 310.391, 374.390 351.500 C 352.664 373.078, 338.981 390.506, 324.140 415.500 C 320.221 422.100, 316.673 428.070, 316.257 428.768 C 315.831 429.481, 310.059 430.916, 303.069 432.046 C 271.026 437.229, 238.132 449.315, 210.238 466.155 C 188.856 479.064, 158.460 505.768, 143.825 524.500 C 115.088 561.284, 97.938 600.388, 90.318 646.500 C 87.698 662.352, 87.702 708.761, 90.324 724.327 C 99.708 780.039, 124.495 828.724, 162.961 867 C 200.789 904.641, 249.846 929.831, 302 938.396 C 323.948 942.001, 333.641 942.101, 629 941.774 C 901.896 941.472, 920.136 941.345, 930 939.675 C 978.016 931.547, 1017.413 911.640, 1050.027 879.027 C 1083.656 845.398, 1104.469 802.583, 1110.962 753.678 C 1112.521 741.931, 1112.242 711.829, 1110.452 698.784 C 1097.827 606.766, 1027.104 534.254, 934.120 517.990 C 927.862 516.896, 920.838 516, 918.511 516 L 914.281 516 911.538 504.250 C 900.991 459.071, 879.454 414.957, 849.796 377.784 C 838.485 363.607, 811.845 337.264, 798 326.566 C 749.885 289.386, 698.895 268.262, 638.500 260.489 C 626.880 258.994, 591.155 257.793, 582 258.590" stroke="none" fill="black" fill-rule="evenodd"/>
</svg>