<svg xmlns="http://www.w3.org/2000/svg" width="1500" height="1500" viewBox="0 0 1500 1500" version="1.1">
	<path d="M 720 333.605 C 679.586 335.524, 630.538 346.848, 594 362.697 C 541.078 385.652, 496.189 417.088, 458.603 457.518 C 443.736 473.510, 435.274 483.984, 424.918 499.218 C 417.530 510.084, 416.644 511.014, 412.726 512.004 C 384.733 519.076, 369.916 524.486, 345.500 536.547 C 316.520 550.863, 290.191 568.735, 267.594 589.428 C 238.745 615.848, 215.411 646.927, 196.591 684 C 182.448 711.859, 174.355 735.357, 168.004 767 C 163.537 789.255, 162.747 801.989, 163.252 843.500 C 163.751 884.427, 164.448 890.801, 171.548 919.382 C 177.498 943.333, 183.598 959.790, 195.129 983 C 212.856 1018.683, 228.935 1041.734, 253.988 1067.379 C 273.290 1087.138, 285.187 1097.189, 305 1110.473 C 323.431 1122.830, 337.076 1130.501, 356.302 1139.312 C 373.922 1147.387, 385.952 1151.588, 406.560 1156.860 C 428.122 1162.377, 442.920 1164.793, 462.849 1166.052 C 474.089 1166.761, 577.969 1166.990, 782.500 1166.756 C 1068.032 1166.429, 1086.105 1166.305, 1096 1164.620 C 1111.714 1161.944, 1143.227 1153.719, 1154 1149.482 C 1180.044 1139.239, 1215.949 1118.230, 1235.514 1101.787 C 1247.403 1091.795, 1270.008 1068.545, 1277.759 1058.337 C 1296.318 1033.895, 1315.052 999.253, 1323.366 974 C 1328.750 957.645, 1333.387 937.597, 1335.461 921.699 C 1337.638 905.004, 1337.607 850.896, 1335.410 833.842 C 1333.264 817.191, 1325.348 786.083, 1319.533 771.450 C 1309.598 746.451, 1291.370 714.996, 1274.941 694.500 C 1266.690 684.207, 1243.793 661.310, 1233.500 653.059 C 1206.222 631.194, 1166.263 610.048, 1135.656 601.282 L 1125.813 598.462 1122.078 588.481 C 1116.386 573.268, 1113.604 567.087, 1103.410 547 C 1089.581 519.753, 1072.690 493.749, 1055.341 473 C 1043.918 459.338, 1018.305 433.779, 1005 422.768 C 969.735 393.580, 923.549 367.575, 881.816 353.409 C 857.876 345.282, 824.909 337.870, 800 335.013 C 790.505 333.924, 734.165 332.933, 720 333.605 M 732 408.590 C 702.625 411.148, 689.618 413.206, 669.500 418.478 C 613.293 433.208, 565.781 460.391, 524.390 501.500 C 502.664 523.078, 488.981 540.506, 474.140 565.500 C 470.221 572.100, 466.673 578.070, 466.257 578.768 C 465.831 579.481, 460.059 580.916, 453.069 582.046 C 421.026 587.229, 388.132 599.315, 360.238 616.155 C 338.856 629.064, 308.460 655.768, 293.825 674.500 C 265.088 711.284, 247.938 750.388, 240.318 796.500 C 237.698 812.352, 237.702 858.761, 240.324 874.327 C 249.708 930.039, 274.495 978.724, 312.961 1017 C 350.789 1054.641, 399.846 1079.831, 452 1088.396 C 473.948 1092.001, 483.641 1092.101, 779 1091.774 C 1051.896 1091.472, 1070.136 1091.345, 1080 1089.675 C 1128.016 1081.547, 1167.413 1061.640, 1200.027 1029.027 C 1233.656 995.398, 1254.469 952.583, 1260.962 903.678 C 1262.521 891.931, 1262.242 861.829, 1260.452 848.784 C 1247.827 756.766, 1177.104 684.254, 1084.120 667.990 C 1077.862 666.896, 1070.838 666, 1068.511 666 L 1064.281 666 1061.538 654.250 C 1050.991 609.071, 1029.454 564.957, 999.796 527.784 C 988.485 513.607, 961.845 487.264, 948 476.566 C 899.885 439.386, 848.895 418.262, 788.500 410.489 C 776.880 408.994, 741.155 407.793, 732 408.590" stroke="none" fill="black" fill-rule="evenodd"/>
</svg>